name analog
datacolumns 19
datarows 62
range 0.0 0.0305
endheader
time	ground_force_vx	ground_force_vy	ground_force_vz	ground_force_px	ground_force_py	ground_force_pz	l_ground_force_vx	l_ground_force_vy	l_ground_force_vz	l_ground_force_px	l_ground_force_py	l_ground_force_pz	ground_torque_x	ground_torque_y	ground_torque_z	l_ground_torque_x	l_ground_torque_y	l_ground_torque_z
0.0	-0.0	-0.0	-0.0	-5.878588676452637	12.871965408325195	-616.5936889648438	-0.0	-0.0	-0.0	-0.0	-0.0	-0.0	-0.0	-0.0	-0.0	-0.0	-0.0	-0.0
0.0005	-0.0	-0.0	-0.0	-6.038180828094482	13.557190895080566	-618.1763305664062	-0.0	-0.0	-0.0	-0.0	-0.0	-0.0	-0.0	-0.0	-0.0	-0.0	-0.0	-0.0
0.001	-0.0	-0.0	-0.0	-6.136689186096191	13.796393394470217	-618.5672607421875	-0.0	-0.0	-0.0	-0.0	-0.0	-0.0	-0.0	-0.0	-0.0	-0.0	-0.0	-0.0
0.0015	-0.0	-0.0	-0.0	-6.0758056640625	14.035191535949709	-618.771240234375	-0.0	-0.0	-0.0	-0.0	-0.0	-0.0	-0.0	-0.0	-0.0	-0.0	-0.0	-0.0
0.002	-0.0	-0.0	-0.0	-5.658385276794434	14.181256294250488	-618.6203002929688	-0.0	-0.0	-0.0	-0.0	-0.0	-0.0	-0.0	-0.0	-0.0	-0.0	-0.0	-0.0
0.0025	-0.0	-0.0	-0.0	-5.559815883636475	14.429545402526855	-617.711669921875	-0.0	-0.0	-0.0	-0.0	-0.0	-0.0	-0.0	-0.0	-0.0	-0.0	-0.0	-0.0
0.003	-0.0	-0.0	-0.0	-6.543612003326416	14.508951187133787	-618.2561645507812	-0.0	-0.0	-0.0	-0.0	-0.0	-0.0	-0.0	-0.0	-0.0	-0.0	-0.0	-0.0
0.0035	-0.0	-0.0	-0.0	-6.582175731658936	14.687131881713867	-618.6176147460938	-0.0	-0.0	-0.0	-0.0	-0.0	-0.0	-0.0	-0.0	-0.0	-0.0	-0.0	-0.0
0.004	-0.0	-0.0	-0.0	-6.630850791931152	14.597887992858888	-619.0084838867188	-0.0	-0.0	-0.0	-0.0	-0.0	-0.0	-0.0	-0.0	-0.0	-0.0	-0.0	-0.0
0.0045000000000000005	-0.0	-0.0	-0.0	-6.452648639678955	14.795646667480469	-617.0443115234375	-0.0	-0.0	-0.0	-0.0	-0.0	-0.0	-0.0	-0.0	-0.0	-0.0	-0.0	-0.0
0.005	-0.0	-0.0	-0.0	-6.561720371246338	14.4292631149292	-616.2584228515625	-0.0	-0.0	-0.0	-0.0	-0.0	-0.0	-0.0	-0.0	-0.0	-0.0	-0.0	-0.0
0.0055	-0.0	-0.0	-0.0	-6.710394382476807	14.914299964904783	-617.711669921875	-0.0	-0.0	-0.0	-0.0	-0.0	-0.0	-0.0	-0.0	-0.0	-0.0	-0.0	-0.0
0.006	-0.0	-0.0	-0.0	-6.185477256774902	14.914056777954102	-618.260009765625	-0.0	-0.0	-0.0	-0.0	-0.0	-0.0	-0.0	-0.0	-0.0	-0.0	-0.0	-0.0
0.006500000000000001	-0.0	-0.0	-0.0	-5.729554176330566	14.775583267211914	-617.279052734375	-0.0	-0.0	-0.0	-0.0	-0.0	-0.0	-0.0	-0.0	-0.0	-0.0	-0.0	-0.0
0.007	-0.0	-0.0	-0.0	-5.064772129058838	14.676202774047852	-617.86474609375	-0.0	-0.0	-0.0	-0.0	-0.0	-0.0	-0.0	-0.0	-0.0	-0.0	-0.0	-0.0
0.0075	-0.0	-0.0	-0.0	-4.6186370849609375	14.339849472045898	-615.7534790039062	-0.0	-0.0	-0.0	-0.0	-0.0	-0.0	-0.0	-0.0	-0.0	-0.0	-0.0	-0.0
0.008	-0.0	-0.0	-0.0	-3.7774758338928223	13.420572280883787	-615.7139282226562	-0.0	-0.0	-0.0	-0.0	-0.0	-0.0	-0.0	-0.0	-0.0	-0.0	-0.0	-0.0
0.0085	-0.0	-0.0	-0.0	-3.2149269580841064	13.102169036865234	-617.1549682617188	-0.0	-0.0	-0.0	-0.0	-0.0	-0.0	-0.0	-0.0	-0.0	-0.0	-0.0	-0.0
0.009000000000000001	-0.0	-0.0	-0.0	-3.190929651260376	12.913593292236328	-615.9049072265625	-0.0	-0.0	-0.0	-0.0	-0.0	-0.0	-0.0	-0.0	-0.0	-0.0	-0.0	-0.0
0.0095	-0.0	-0.0	-0.0	-2.213832378387451	11.701218605041504	-616.3401489257812	-0.0	-0.0	-0.0	-0.0	-0.0	-0.0	-0.0	-0.0	-0.0	-0.0	-0.0	-0.0
0.01	-0.0	-0.0	-0.0	-2.4191207885742188	11.64479923248291	-619.1470947265625	-0.0	-0.0	-0.0	-0.0	-0.0	-0.0	-0.0	-0.0	-0.0	-0.0	-0.0	-0.0
0.0105	-0.0	-0.0	-0.0	-2.4559195041656494	10.758553504943848	-619.4776611328125	-0.0	-0.0	-0.0	-0.0	-0.0	-0.0	-0.0	-0.0	-0.0	-0.0	-0.0	-0.0
0.011	-0.0	-0.0	-0.0	-2.3089067935943604	10.092849731445312	-620.3697509765625	-0.0	-0.0	-0.0	-0.0	-0.0	-0.0	-0.0	-0.0	-0.0	-0.0	-0.0	-0.0
0.0115	-0.0	-0.0	-0.0	-1.758638858795166	9.511404991149902	-621.7818603515625	-0.0	-0.0	-0.0	-0.0	-0.0	-0.0	-0.0	-0.0	-0.0	-0.0	-0.0	-0.0
0.012	-0.0	-0.0	-0.0	-2.2942423820495605	9.123262405395508	-622.614013671875	-0.0	-0.0	-0.0	-0.0	-0.0	-0.0	-0.0	-0.0	-0.0	-0.0	-0.0	-0.0
0.0125	-0.0	-0.0	-0.0	-2.1517884731292725	9.059121131896973	-621.2435302734375	-0.0	-0.0	-0.0	-0.0	-0.0	-0.0	-0.0	-0.0	-0.0	-0.0	-0.0	-0.0
0.013000000000000001	-0.0	-0.0	-0.0	-2.80085563659668	9.091300964355469	-622.6989135742188	-0.0	-0.0	-0.0	-0.0	-0.0	-0.0	-0.0	-0.0	-0.0	-0.0	-0.0	-0.0
0.0135	-0.0	-0.0	-0.0	-2.868003845214844	8.443293571472168	-620.890380859375	-0.0	-0.0	-0.0	-0.0	-0.0	-0.0	-0.0	-0.0	-0.0	-0.0	-0.0	-0.0
0.014	-0.0	-0.0	-0.0	-2.7676234245300293	8.725996017456055	-620.7957763671875	-0.0	-0.0	-0.0	-0.0	-0.0	-0.0	-0.0	-0.0	-0.0	-0.0	-0.0	-0.0
0.0145	-0.0	-0.0	-0.0	-2.497894287109375	8.812973976135254	-620.8470458984375	-0.0	-0.0	-0.0	-0.0	-0.0	-0.0	-0.0	-0.0	-0.0	-0.0	-0.0	-0.0
0.015	-0.0	-0.0	-0.0	-2.956027030944824	8.73583984375	-619.6085205078125	-0.0	-0.0	-0.0	-0.0	-0.0	-0.0	-0.0	-0.0	-0.0	-0.0	-0.0	-0.0
0.0155	-0.0	-0.0	-0.0	-2.698432445526123	8.367209434509277	-618.2400512695312	-0.0	-0.0	-0.0	-0.0	-0.0	-0.0	-0.0	-0.0	-0.0	-0.0	-0.0	-0.0
0.016	-0.0	-0.0	-0.0	-2.754427194595337	8.634560585021973	-616.87353515625	-0.0	-0.0	-0.0	-0.0	-0.0	-0.0	-0.0	-0.0	-0.0	-0.0	-0.0	-0.0
0.0165	-0.0	-0.0	-0.0	-2.498055458068848	8.790586471557617	-617.00537109375	-0.0	-0.0	-0.0	-0.0	-0.0	-0.0	-0.0	-0.0	-0.0	-0.0	-0.0	-0.0
0.017	-0.0	-0.0	-0.0	-2.910261869430542	8.289127349853516	-615.5482177734375	-0.0	-0.0	-0.0	-0.0	-0.0	-0.0	-0.0	-0.0	-0.0	-0.0	-0.0	-0.0
0.0175	-0.0	-0.0	-0.0	-2.876139640808105	8.788838386535645	-614.7120361328125	-0.0	-0.0	-0.0	-0.0	-0.0	-0.0	-0.0	-0.0	-0.0	-0.0	-0.0	-0.0
0.018000000000000002	-0.0	-0.0	-0.0	-2.697478771209717	8.245321273803711	-611.4442749023438	-0.0	-0.0	-0.0	-0.0	-0.0	-0.0	-0.0	-0.0	-0.0	-0.0	-0.0	-0.0
0.0185	-0.0	-0.0	-0.0	-2.330871105194092	7.998960971832275	-611.7076416015625	-0.0	-0.0	-0.0	-0.0	-0.0	-0.0	-0.0	-0.0	-0.0	-0.0	-0.0	-0.0
0.019	-0.0	-0.0	-0.0	-2.6419034004211426	7.740332126617432	-611.8438720703125	-0.0	-0.0	-0.0	-0.0	-0.0	-0.0	-0.0	-0.0	-0.0	-0.0	-0.0	-0.0
0.0195	-0.0	-0.0	-0.0	-2.610127687454224	7.141932964324951	-610.8759765625	-0.0	-0.0	-0.0	-0.0	-0.0	-0.0	-0.0	-0.0	-0.0	-0.0	-0.0	-0.0
0.02	-0.0	-0.0	-0.0	-3.277684450149536	6.428930759429932	-612.2437133789062	-0.0	-0.0	-0.0	-0.0	-0.0	-0.0	-0.0	-0.0	-0.0	-0.0	-0.0	-0.0
0.0205	-0.0	-0.0	-0.0	-2.823651075363159	6.149997711181641	-611.66162109375	-0.0	-0.0	-0.0	-0.0	-0.0	-0.0	-0.0	-0.0	-0.0	-0.0	-0.0	-0.0
0.021	-0.0	-0.0	-0.0	-3.669313430786133	5.835918426513672	-611.9220581054688	-0.0	-0.0	-0.0	-0.0	-0.0	-0.0	-0.0	-0.0	-0.0	-0.0	-0.0	-0.0
0.021500000000000002	-0.0	-0.0	-0.0	-3.460531234741211	5.2704386711120605	-612.060791015625	-0.0	-0.0	-0.0	-0.0	-0.0	-0.0	-0.0	-0.0	-0.0	-0.0	-0.0	-0.0
0.022	-0.0	-0.0	-0.0	-3.592010974884033	4.468304634094238	-611.2144165039062	-0.0	-0.0	-0.0	-0.0	-0.0	-0.0	-0.0	-0.0	-0.0	-0.0	-0.0	-0.0
0.0225	-0.0	-0.0	-0.0	-3.223430871963501	4.676543712615967	-611.5199584960938	-0.0	-0.0	-0.0	-0.0	-0.0	-0.0	-0.0	-0.0	-0.0	-0.0	-0.0	-0.0
0.023	-0.0	-0.0	-0.0	-3.4138503074646	3.8979082107543945	-611.82470703125	-0.0	-0.0	-0.0	-0.0	-0.0	-0.0	-0.0	-0.0	-0.0	-0.0	-0.0	-0.0
0.0235	-0.0	-0.0	-0.0	-2.6230010986328125	3.3217341899871826	-610.1312255859375	-0.0	-0.0	-0.0	-0.0	-0.0	-0.0	-0.0	-0.0	-0.0	-0.0	-0.0	-0.0
0.024	-0.0	-0.0	-0.0	-2.724336862564087	3.030433654785156	-610.294921875	-0.0	-0.0	-0.0	-0.0	-0.0	-0.0	-0.0	-0.0	-0.0	-0.0	-0.0	-0.0
0.0245	-0.0	-0.0	-0.0	-2.907711982727051	2.524444580078125	-611.3067016601562	-0.0	-0.0	-0.0	-0.0	-0.0	-0.0	-0.0	-0.0	-0.0	-0.0	-0.0	-0.0
0.025	-0.0	-0.0	-0.0	-2.611375093460083	1.7904717922210691	-610.8091430664062	-0.0	-0.0	-0.0	-0.0	-0.0	-0.0	-0.0	-0.0	-0.0	-0.0	-0.0	-0.0
0.025500000000000002	-0.0	-0.0	-0.0	-2.1288442611694336	1.7582138776779177	-610.8563232421875	-0.0	-0.0	-0.0	-0.0	-0.0	-0.0	-0.0	-0.0	-0.0	-0.0	-0.0	-0.0
0.026000000000000002	-0.0	-0.0	-0.0	-2.113081932067871	1.0818018913269043	-613.0233764648438	-0.0	-0.0	-0.0	-0.0	-0.0	-0.0	-0.0	-0.0	-0.0	-0.0	-0.0	-0.0
0.0265	-0.0	-0.0	-0.0	-1.9903160333633425	0.6485009789466858	-612.81591796875	-0.0	-0.0	-0.0	-0.0	-0.0	-0.0	-0.0	-0.0	-0.0	-0.0	-0.0	-0.0
0.027	-0.0	-0.0	-0.0	-1.5810332298278809	-0.1931899189949035	-614.4840698242188	-0.0	-0.0	-0.0	-0.0	-0.0	-0.0	-0.0	-0.0	-0.0	-0.0	-0.0	-0.0
0.0275	-0.0	-0.0	-0.0	-2.0913796424865723	-0.1906678080558776	-611.9534301757812	-0.0	-0.0	-0.0	-0.0	-0.0	-0.0	-0.0	-0.0	-0.0	-0.0	-0.0	-0.0
0.028	-0.0	-0.0	-0.0	-1.3256827592849731	0.1265213191509246	-612.9154052734375	-0.0	-0.0	-0.0	-0.0	-0.0	-0.0	-0.0	-0.0	-0.0	-0.0	-0.0	-0.0
0.0285	-0.0	-0.0	-0.0	-2.1034090518951416	0.0779693126678466	-614.8365478515625	-0.0	-0.0	-0.0	-0.0	-0.0	-0.0	-0.0	-0.0	-0.0	-0.0	-0.0	-0.0
0.029	-0.0	-0.0	-0.0	-1.7590348720550537	-0.1908371746540069	-614.0303955078125	-0.0	-0.0	-0.0	-0.0	-0.0	-0.0	-0.0	-0.0	-0.0	-0.0	-0.0	-0.0
0.029500000000000002	-0.0	-0.0	-0.0	-1.554560303688049	-0.3565216064453125	-614.179931640625	-0.0	-0.0	-0.0	-0.0	-0.0	-0.0	-0.0	-0.0	-0.0	-0.0	-0.0	-0.0
0.03	-0.0	-0.0	-0.0	-1.8607202768325808	-0.5988415479660034	-614.2816772460938	0.1530868858098983	-0.9907003045082092	-20.184614181518555	-0.0	-0.0	-0.0	-0.0	-0.0	-0.0	6391.96435546875	-36.60152053833008	51.04803466796875
0.0305	-0.0	-0.0	-0.0	-2.3193843364715576	0.1272783875465393	-613.3724975585938	2.817443609237671	1.5532803535461426	-21.936059951782227	-0.0	-0.0	-0.0	-0.0	-0.0	-0.0	8181.85498046875	-420.3577270507813	838.1307373046875
